Coordinates
version=1
nRows=5
nColumns=63
inDegrees=yes

Units are S.I. units (second, meters, Newtons, ...)
If the header above contains a line with 'inDegrees', this indicates whether rotational values are in degrees (yes) or radians (no).

endheader
time	pelvis_tilt	pelvis_list	pelvis_rotation	pelvis_tx	pelvis_ty	pelvis_tz	hip_flexion_r	hip_adduction_r	hip_rotation_r	knee_angle_r	knee_angle_r_beta	ankle_angle_r	subtalar_angle_r	mtp_angle_r	hip_flexion_l	hip_adduction_l	hip_rotation_l	knee_angle_l	knee_angle_l_beta	ankle_angle_l	subtalar_angle_l	mtp_angle_l	L5_S1_Flex_Ext	L5_S1_Lat_Bending	L5_S1_axial_rotation	L4_L5_Flex_Ext	L4_L5_Lat_Bending	L4_L5_axial_rotation	L3_L4_Flex_Ext	L3_L4_Lat_Bending	L3_L4_axial_rotation	L2_L3_Flex_Ext	L2_L3_Lat_Bending	L2_L3_axial_rotation	L1_L2_Flex_Ext	L1_L2_Lat_Bending	L1_L2_axial_rotation	L1_T12_Flex_Ext	L1_T12_Lat_Bending	L1_T12_axial_rotation	Abs_r3	Abs_r2	Abs_r1	Abs_t1	Abs_t2	neck_flexion	neck_bending	neck_rotation	arm_flex_r	arm_add_r	arm_rot_r	elbow_flex_r	pro_sup_r	wrist_flex_r	wrist_dev_r	arm_flex_l	arm_add_l	arm_rot_l	elbow_flex_l	pro_sup_l	wrist_flex_l	wrist_dev_l
      0.00800000	    -50.79509290	     -4.10031193	      4.52685237	     -0.37255893	      1.11969190	      0.03962780	     84.45634180	     -8.51885794	    -10.48576697	     49.12110791	      0.85732507	      1.78589246	      7.74273679	      0.00000000	    115.50944312	     -2.52837397	      8.15558372	    115.30844651	      2.01251205	     21.37200931	     15.16066678	      0.00000000	     -0.08936275	      0.23149325	     -0.38769866	     -0.16595557	      0.30788602	     -0.41192983	     -0.14681407	      0.56285268	     -0.41192983	     -0.10213269	      0.56285268	     -0.33923633	     -0.08298225	      0.47206103	     -0.31500517	     -0.05106188	      0.35858304	     -0.29077400	     -0.63830922	      2.61869789	     -2.15626366	      0.00000000	      0.00000000	     -0.00000000	      0.00000000	      0.00000001	     66.76517074	    -16.18292180	     12.72716213	     38.76460591	     54.10326589	      0.00000000	      5.39356669	     67.58381422	     -9.00328070	     16.55460942	     41.30602110	     58.23774245	      0.00000000	      5.39356669
      0.01700000	    -51.04209093	     -4.07333458	      4.09199715	     -0.37207887	      1.12158421	      0.03873818	     82.69580154	     -8.11753530	    -10.89951908	     48.79387349	      0.85161375	      1.79672699	      7.78024654	      0.00000000	    118.10726354	     -2.67954664	      7.98203327	    114.79818271	      2.00360626	     21.66858101	     15.83695912	      0.00000000	     -0.08494626	      0.22680669	     -0.32897006	     -0.15775370	      0.30165290	     -0.34953069	     -0.13955821	      0.55145780	     -0.34953069	     -0.09708508	      0.55145780	     -0.28784880	     -0.07888110	      0.46250421	     -0.26728818	     -0.04853829	      0.35132357	     -0.24672755	     -0.60676265	      2.56568269	     -1.82963280	      0.00000000	      0.00000000	     -0.00000000	      0.00000000	      0.00000001	     66.91084938	    -16.04799060	     12.51407114	     38.40564128	     54.04091909	      0.00000000	      5.38319019	     67.57559093	     -9.10816209	     16.75204742	     41.44059398	     58.26050948	      0.00000000	      5.38319019
      0.02500000	    -51.13633922	     -4.09522012	      4.02437052	     -0.37217331	      1.12225118	      0.03821625	     82.49216206	     -8.09751239	    -10.79470184	     49.33386422	      0.86103836	      1.60286334	      7.79527361	      0.00000000	    118.62956421	     -2.61876269	      7.80701271	    114.24464707	      1.99394524	     21.87375506	     15.67092549	      0.00000000	     -0.08504762	      0.23436536	     -0.31778974	     -0.15794194	      0.31170593	     -0.33765160	     -0.13972474	      0.56983594	     -0.33765160	     -0.09720093	      0.56983594	     -0.27806602	     -0.07897522	      0.47791784	     -0.25820416	     -0.04859621	      0.36303194	     -0.23834230	     -0.60748667	      2.65118783	     -1.76745119	      0.00000000	      0.00000000	     -0.00000000	      0.00000000	      0.00000001	     66.94632521	    -16.06675395	     12.47327229	     38.46627914	     54.01583015	      0.00000000	      5.37917636	     67.54365372	     -9.07529745	     16.69730923	     41.50178749	     58.23958669	      0.00000000	      5.37917636
      0.03300000	    -51.24674921	     -4.10896389	      3.93373940	     -0.37235128	      1.12303250	      0.03761102	     82.34557735	     -8.07776522	    -10.64926469	     50.12200919	      0.87479409	      1.40816042	      7.78456092	      0.00000000	    119.12969830	     -2.55692375	      7.58898958	    113.45914544	      1.98023565	     22.01231606	     15.44962012	      0.00000000	     -0.08563565	      0.24310508	     -0.30377072	     -0.15903396	      0.32332975	     -0.32275639	     -0.14069081	      0.59108569	     -0.32275639	     -0.09787298	      0.59108569	     -0.26579938	     -0.07952126	      0.49573988	     -0.24681371	     -0.04893221	      0.37656977	     -0.22782804	     -0.61168687	      2.75005327	     -1.68948162	      0.00000000	      0.00000000	     -0.00000000	      0.00000000	      0.00000001	     67.00980593	    -16.06437826	     12.40873276	     38.52945460	     53.98546965	      0.00000000	      5.37490604	     67.50401526	     -9.02980836	     16.55942007	     41.59072435	     58.20535963	      0.00000000	      5.37490604
      0.04200000	    -51.37447139	     -4.14566934	      3.82047789	     -0.37256441	      1.12383780	      0.03702496	     82.29065821	     -8.02760725	    -10.43518586	     51.23090790	      0.89414802	      1.28779159	      7.71945334	      0.00000000	    119.60510580	     -2.50568803	      7.36745423	    112.43871464	      1.96242578	     22.03336638	     15.15737478	      0.00000000	     -0.08588526	      0.25361012	     -0.28540673	     -0.15949752	      0.33730145	     -0.30324465	     -0.14110089	      0.61662763	     -0.30324465	     -0.09815826	      0.61662763	     -0.24973089	     -0.07975305	      0.51716175	     -0.23189297	     -0.04907484	      0.39284207	     -0.21405505	     -0.61346983	      2.86888834	     -1.58734661	      0.00000000	      0.00000000	     -0.00000000	      0.00000000	      0.00000001	     67.08379255	    -16.08301328	     12.32264036	     38.58594843	     53.95086974	      0.00000000	      5.37078958	     67.45288113	     -8.94559827	     16.37661581	     41.69543783	     58.16035065	      0.00000000	      5.37078958
